PathFileType	4	(X/Y/Z)	./resultDataOpenSim/trcMotMarkerGrf/sub10/qtm-05-07.trc
DataRate	CameraRate	NumFrames	NumMarkers	Units	OrigDataRate	OrigDataStartFrame	OrigNumFrames
250.000000	250.000000	14	24	m	250.000000	257	513
Frame#	Time	L.Toe.Tip			R.Toe.Tip			L.Ankle.Lat			R.Ankle.Lat			L.Ankle.Med			R.Ankle.Med			L.Heel			R.Heel			L.Knee.Lat			R.Knee.Lat			L.Knee.Med			R.Knee.Med			L.Thigh.Upper			R.Thigh.Upper			L.ASIS			R.ASIS			V.Sacral			L.Acromium			R.Acromium			C7			L.Elbow			R.Elbow			L.Wrist.Lat			R.Wrist.Lat
		X1	Y1	Z1	X2	Y2	Z2	X3	Y3	Z3	X4	Y4	Z4	X5	Y5	Z5	X6	Y6	Z6	X7	Y7	Z7	X8	Y8	Z8	X9	Y9	Z9	X10	Y10	Z10	X11	Y11	Z11	X12	Y12	Z12	X13	Y13	Z13	X14	Y14	Z14	X15	Y15	Z15	X16	Y16	Z16	X17	Y17	Z17	X18	Y18	Z18	X19	Y19	Z19	X20	Y20	Z20	X21	Y21	Z21	X22	Y22	Z22	X23	Y23	Z23	X24	Y24	Z24

257	1.024	0.08365161	-0.057125181	-0.12816989	0.27380911	0.096973788	0.053913164	-0.044502583	-0.0091959774	-0.1735872	0.14755607	0.15944345	0.031401361	-0.043473727	0.015208259	-0.09401415	0.20663273	0.16477899	-0.037568088	-0.11397631	-0.025778576	-0.13654796	0.11265348	0.14201006	-0.031082127	0.038983268	0.36794946	-0.19683245	0.34387268	0.48696759	0.085861011	0.024945179	0.35116304	-0.07868038	0.3879147	0.50261125	-0.03864697	0.10841775	0.76455134	-0.24956227	0.099234027	0.80137169	0.13155017	0.1742439	0.87195614	-0.18073657	0.15939468	0.88889314	0.059864386	-0.017366765	0.89697375	-0.072623972	0.14367296	1.3507609	-0.2210069	0.088961768	1.3513997	0.093348084	0.040855674	1.3789847	-0.088180507	0.11853863	1.0126866	-0.32462441	-0.020196089	1.0206861	0.10990841	0.3309269	0.88354425	-0.33722663	0.050665386	0.80120525	0.19038312
258	1.028	0.083524737	-0.057109703	-0.12819172	0.29356474	0.096097251	0.054329317	-0.044785021	-0.0090108586	-0.17322061	0.16560684	0.15479532	0.032067287	-0.043236686	0.015402308	-0.093723424	0.22427128	0.16177026	-0.037127032	-0.11410229	-0.025730536	-0.13581109	0.13134224	0.13618349	-0.030668699	0.039001819	0.36816871	-0.19692065	0.35224097	0.48912546	0.085298955	0.025815963	0.35119486	-0.0787065	0.39509698	0.50539371	-0.039056534	0.11102745	0.76434957	-0.24958226	0.10645641	0.80233276	0.13230568	0.17763808	0.87162433	-0.18134267	0.16497507	0.8888584	0.059401957	-0.012490029	0.89720168	-0.071210178	0.1485256	1.3505241	-0.22102926	0.094352132	1.3512447	0.093328307	0.046087052	1.3786693	-0.088113695	0.12666746	1.0120929	-0.32481711	-0.017680406	1.0216413	0.10960665	0.34130041	0.88622701	-0.33512943	0.050274656	0.80157816	0.19125401
259	1.032	0.083339846	-0.05708658	-0.12815559	0.31328647	0.095279637	0.054686812	-0.045030918	-0.0089215997	-0.17288386	0.18369717	0.15023479	0.032887048	-0.043102681	0.01550216	-0.09335801	0.2419286	0.15878462	-0.036661779	-0.11423306	-0.025760407	-0.13500737	0.15008436	0.13056307	-0.030288469	0.039109912	0.36832892	-0.19697601	0.36045778	0.49108212	0.084785227	0.02690469	0.35115254	-0.078784451	0.40203933	0.50786314	-0.039445272	0.11377165	0.76410248	-0.24950562	0.11341685	0.80312615	0.13293998	0.18103623	0.87119478	-0.18192829	0.17056621	0.8887063	0.058929014	-0.0077876255	0.89736917	-0.069684778	0.15340152	1.3501841	-0.2210576	0.099765325	1.3509851	0.093291474	0.051324543	1.3782475	-0.088051943	0.13480945	1.0114925	-0.32500231	-0.015085377	1.0225067	0.10931338	0.35158772	0.88888935	-0.3329968	0.049868533	0.80190766	0.19213922
260	1.036	0.083066131	-0.057047591	-0.1280086	0.33296701	0.094524305	0.054964238	-0.04524597	-0.0089664745	-0.17254232	0.20183798	0.14578721	0.033791858	-0.043004373	0.015500485	-0.092932495	0.2596016	0.15584641	-0.036204158	-0.11438411	-0.025847387	-0.13414469	0.16880444	0.125168	-0.029865226	0.039312849	0.36842696	-0.19699695	0.36854033	0.49281759	0.084323561	0.02812751	0.35096544	-0.078768458	0.40881936	0.51003625	-0.039828073	0.11651965	0.76376701	-0.24946302	0.11979274	0.80366668	0.13327361	0.18442722	0.87064788	-0.18252752	0.17617037	0.88844509	0.058436699	-0.0030744403	0.89743502	-0.068108094	0.15830022	1.3497414	-0.22108573	0.10519886	1.3506184	0.093237726	0.056570475	1.3777192	-0.087987873	0.14300872	1.0109454	-0.3251798	-0.012278442	1.0232406	0.10898075	0.36180689	0.89154262	-0.33080517	0.049498151	0.80220668	0.19303813
261	1.04	0.082762562	-0.056983803	-0.12783646	0.35261877	0.093789283	0.055137294	-0.045492345	-0.0091105013	-0.17212897	0.22007419	0.1414435	0.034689201	-0.042896688	0.015406904	-0.092438875	0.27727577	0.1530084	-0.035740167	-0.11456173	-0.025985412	-0.13324559	0.18746399	0.11997271	-0.029273553	0.039615934	0.3684597	-0.19698189	0.37651721	0.49432244	0.083904604	0.029453101	0.35060566	-0.07859239	0.41549519	0.51191915	-0.040191884	0.11923097	0.76332056	-0.24954815	0.12571272	0.8039713	0.13336379	0.18779142	0.86996701	-0.18317146	0.18179179	0.88808609	0.057924436	0.0010824753	0.89760393	-0.066046753	0.16321865	1.3491964	-0.22111166	0.11064067	1.3501471	0.093179871	0.061825139	1.3770868	-0.087920631	0.15127291	1.0104699	-0.32535483	-0.0092325389	1.0238237	0.10860458	0.37197871	0.89419452	-0.32853392	0.049201245	0.80248332	0.19395543
262	1.044	0.082553782	-0.05690901	-0.12780417	0.37225015	0.093030338	0.055187676	-0.045824817	-0.0093029318	-0.17157386	0.23845012	0.13717081	0.035524609	-0.042782888	0.01525627	-0.091834505	0.29492068	0.15030626	-0.035236109	-0.11475785	-0.0261743	-0.13231145	0.20604477	0.11495425	-0.0284296	0.040024477	0.368424	-0.19692926	0.38442039	0.49559726	0.083517157	0.030890032	0.35008535	-0.078276805	0.42207529	0.51349652	-0.040519977	0.12194409	0.76276939	-0.24977357	0.13151774	0.80411342	0.13338342	0.19109672	0.86913959	-0.18387548	0.1874315	0.88764017	0.05739316	0.0034444264	0.89821066	-0.062791814	0.16815439	1.3485492	-0.22113799	0.11608056	1.3495765	0.093134308	0.067089998	1.3763534	-0.087854143	0.15956114	1.0100174	-0.32553223	-0.0060227188	1.0242702	0.10823738	0.38208875	0.89683638	-0.32620251	0.048977988	0.80273391	0.1948981
263	1.048	0.082495771	-0.056859566	-0.12794826	0.39184807	0.092233557	0.055110834	-0.046234638	-0.0095297348	-0.1708508	0.25698858	0.13295955	0.036300598	-0.042690716	0.015078422	-0.091077876	0.31250401	0.14774018	-0.03467925	-0.11495432	-0.026411491	-0.13131471	0.22456534	0.11011419	-0.027379602	0.04054378	0.36831677	-0.19683748	0.39225744	0.49664175	0.083160886	0.032457812	0.34942983	-0.077881016	0.42856511	0.51475499	-0.040810947	0.12468829	0.76212351	-0.25009598	0.1374418	0.80415295	0.13345489	0.19431504	0.86815852	-0.18463179	0.19308544	0.88711227	0.056840506	0.0029104981	0.89937838	-0.058030517	0.17310569	1.3478006	-0.22117245	0.12151733	1.3489049	0.09310423	0.072366975	1.375521	-0.087792031	0.16781569	1.0095008	-0.32570828	-0.0027504319	1.0246159	0.10794911	0.39208704	0.89944591	-0.32386564	0.048818985	0.80294954	0.19586759
264	1.052	0.082517058	-0.056860398	-0.12812114	0.41138745	0.091406047	0.054910944	-0.046656253	-0.0098066125	-0.16999007	0.27565627	0.12884431	0.037071244	-0.042626946	0.014863429	-0.090183865	0.33000584	0.14529569	-0.034071777	-0.1151359	-0.026687136	-0.13022868	0.24306288	0.10546449	-0.026230531	0.041179094	0.36813494	-0.196705	0.40000724	0.49745599	0.082846762	0.034168481	0.34866027	-0.077455485	0.43499012	0.51569821	-0.041070537	0.12745107	0.76138032	-0.25045827	0.14355966	0.804118	0.13361972	0.19747627	0.86704735	-0.18539195	0.19874937	0.88649984	0.056260322	-0.00012678838	0.90074163	-0.052449359	0.17806899	1.3469524	-0.22122573	0.12695959	1.3481231	0.093078425	0.077654835	1.3745897	-0.087736766	0.17599489	1.008835	-0.32587346	0.00051101347	1.0248906	0.10776092	0.40194111	0.90200679	-0.32155499	0.048723204	0.80312357	0.19686125
265	1.056	0.08252005	-0.05690603	-0.12817207	0.43083682	0.090556744	0.054594489	-0.046993339	-0.010142926	-0.16907296	0.29436844	0.12487502	0.037903144	-0.042573893	0.014580639	-0.089207779	0.347421	0.14296024	-0.033410735	-0.11529978	-0.026985077	-0.12905378	0.26154774	0.10101754	-0.0250431	0.041935575	0.36787554	-0.19653031	0.40764578	0.49804754	0.082582726	0.036025173	0.3477942	-0.077023565	0.44138285	0.51633594	-0.041306496	0.13020022	0.76052466	-0.25082171	0.14988425	0.80401501	0.13388395	0.20066318	0.86586041	-0.18608764	0.20441928	0.88579827	0.055643396	-0.0031802731	0.90162691	-0.047522718	0.18304265	1.3460027	-0.22130146	0.13242011	1.3472242	0.093046541	0.082949534	1.3735574	-0.087689201	0.1840868	1.0079748	-0.32602053	0.0037273842	1.025099	0.10762178	0.4116656	0.90452041	-0.31925149	0.048685056	0.80324958	0.19787664
266	1.06	0.082474495	-0.05697593	-0.12807852	0.45015839	0.089690813	0.054174711	-0.047183786	-0.010514131	-0.16818306	0.31302678	0.12108461	0.038830338	-0.042519051	0.014220258	-0.088184492	0.36474946	0.14072878	-0.032686871	-0.11545222	-0.027287104	-0.1278115	0.2799928	0.096783777	-0.023820249	0.042818313	0.36753561	-0.19631201	0.41516185	0.49842848	0.082364794	0.038026219	0.34684677	-0.076585736	0.44777094	0.51667074	-0.041531578	0.13291431	0.75953738	-0.25116631	0.15640568	0.80383558	0.13423467	0.20391047	0.86462826	-0.18670087	0.2100909	0.88500919	0.054982314	-0.0029230817	0.90149615	-0.044630167	0.18803495	1.3449431	-0.22138822	0.13790643	1.3462089	0.093003558	0.088247012	1.3724223	-0.087647155	0.19210764	1.0069325	-0.32614597	0.0068974648	1.025226	0.10746802	0.4212914	0.90699615	-0.31692486	0.048679422	0.80331447	0.19890945
267	1.064	0.082400179	-0.057049972	-0.12789788	0.46932127	0.088817253	0.053672855	-0.047270497	-0.010874255	-0.16732267	0.33154681	0.11748868	0.039839766	-0.042461619	0.013798505	-0.08711644	0.38198319	0.13860062	-0.031900563	-0.11559812	-0.027575809	-0.12652325	0.29835763	0.092764618	-0.022547806	0.04383262	0.36711185	-0.1960486	0.42255304	0.49860409	0.082183246	0.040161917	0.34583042	-0.076125414	0.45415898	0.51669853	-0.041756087	0.13559264	0.75840841	-0.25148287	0.16305471	0.80355637	0.13462099	0.20717258	0.86333499	-0.18728161	0.21576924	0.88414314	0.054280056	0.0024691283	0.90021967	-0.044223368	0.19306183	1.3437655	-0.22146872	0.14341659	1.3450807	0.092944837	0.093544735	1.3711846	-0.087607443	0.20008659	1.0057492	-0.32624997	0.010043273	1.0252572	0.10728633	0.4308285	0.90943659	-0.31457176	0.048673323	0.80329952	0.19995099
268	1.068	0.082316826	-0.057112744	-0.12768364	0.48831503	0.087953859	0.053105425	-0.047356114	-0.011196868	-0.16641872	0.3498758	0.11409095	0.040894089	-0.042396509	0.013346479	-0.085994011	0.39910303	0.13657217	-0.03107234	-0.11574065	-0.027838809	-0.12520317	0.3166079	0.088949164	-0.021214342	0.044984646	0.36660003	-0.1957381	0.42982806	0.49856765	0.082029409	0.042409318	0.34476278	-0.075616305	0.46050966	0.51641609	-0.041973463	0.13823925	0.75714407	-0.25176419	0.16969729	0.80314218	0.13495249	0.21041006	0.86195762	-0.18788557	0.22148039	0.8832124	0.053552937	0.011907052	0.89812092	-0.045525799	0.19813329	1.3424703	-0.22153985	0.14894614	1.3438405	0.092869594	0.09884319	1.369848	-0.087569225	0.2080481	1.0044565	-0.3263377	0.013192851	1.0251894	0.10710425	0.44026331	0.91183532	-0.31221028	0.048670386	0.80319936	0.20099939
269	1.072	0.082225882	-0.057159805	-0.12746207	0.50714858	0.087117765	0.052472452	-0.047495095	-0.011488066	-0.16542096	0.36800652	0.11087965	0.041962189	-0.042303988	0.012905741	-0.08480204	0.41608515	0.13463861	-0.030230294	-0.11588639	-0.02807503	-0.12386234	0.33471539	0.085320277	-0.019809134	0.046281902	0.36599481	-0.1953776	0.43701159	0.49830623	0.081895727	0.04473795	0.34366997	-0.075046325	0.46677987	0.5158319	-0.042165736	0.14083693	0.75575752	-0.25198245	0.1761904	0.80255516	0.13513135	0.21364097	0.86049216	-0.18853058	0.22726288	0.88222077	0.052822076	0.022173974	0.89581576	-0.047002844	0.20324772	1.3410625	-0.221616	0.15449566	1.3424899	0.092787698	0.10414557	1.3684217	-0.087532468	0.21600097	1.0030715	-0.32641542	0.01636477	1.0250258	0.10694866	0.4495848	0.91418751	-0.30985098	0.048737056	0.80304079	0.20207186
270	1.076	0.082117622	-0.057201155	-0.12724321	0.52583806	0.086320799	0.05176107	-0.047675546	-0.011762612	-0.1643437	0.38596573	0.10783785	0.043042504	-0.042156576	0.012509142	-0.083528938	0.43290555	0.13280101	-0.02939078	-0.11603942	-0.028294912	-0.122505	0.35265481	0.081861255	-0.018320592	0.047732183	0.36529159	-0.19496352	0.4441284	0.49781033	0.081773508	0.047124704	0.34257375	-0.074434989	0.47299028	0.51497528	-0.042332567	0.14333593	0.75425531	-0.25207344	0.1824594	0.80177244	0.13510154	0.2169116	0.85895037	-0.18920824	0.23313365	0.88116385	0.052094871	0.030465027	0.89380014	-0.047461219	0.20839794	1.3395479	-0.2217147	0.16006879	1.3410351	0.092718003	0.10945215	1.3669165	-0.08749508	0.22393935	1.0016071	-0.32648102	0.019565679	1.0247694	0.10682438	0.45880756	0.9165002	-0.3074783	0.048957832	0.80286621	0.20318827
